# xmcd
#
# Track frame offsets:
#  150
#  19348
#  45497
#  62260
#  80058
#  99496
#  117956
#  134636
#  151044
#  169995
#  184773
#  203281
#  224375
#  241047
#  260687
#  282785
#  299399
#  316782
#
# Disc length: 4461 seconds
#
# Revision: 0
# Processed by: cddbd v1.5.2PL0 Copyright (c) Steve Scherf et al.
# Submitted via: Collectorz.com_Music_Collector 6.11
#
DISCID=f8116b12
DTITLE=Various Artist - Love Struck Volume Two
DYEAR=2005
DGENRE=Philippine - Pop
TTITLE0=Sharon Cuneta - Now That You're Gone
TTITLE1=Regine Velasquez - Say That You Love Me
TTITLE2=Sarah Geronimo - Can This Be Love
TTITLE3=Ogie Alcasid - Hello
TTITLE4=Gary Valenciano and Jinky Vidal - Always
TTITLE5=Ella May Saison - Till My Heartaches End
TTITLE6=Noney Zuniga - Too Shy To Say
TTITLE7=Roselle Nava - If You Remember Me
TTITLE8=Rachelle Ann Go - From The Start
TTITLE9=Rivermaya - A Love To Share
TTITLE10=Bituin Escalante - Always Somewhere
TTITLE11=Passage - You Won't See Me Crying
TTITLE12=Jaya - Love Hurts
TTITLE13=Raymond Manalo - You Changed My Life In A Moment
TTITLE14=Janno Gibbs and Lani Misalucha - Through The Fire
TTITLE15=Rachel Alejandro - What Matters Most
TTITLE16=Nyoy Volante - Be My Lady
TTITLE17=Allona - Someone's Always Saying Goodbye
EXTD=
EXTT0=
EXTT1=
EXTT2=
EXTT3=
EXTT4=
EXTT5=
EXTT6=
EXTT7=
EXTT8=
EXTT9=
EXTT10=
EXTT11=
EXTT12=
EXTT13=
EXTT14=
EXTT15=
EXTT16=
EXTT17=
PLAYORDER=
